<?xml version="1.0" encoding="utf-8"?>
<!-- Generator: Adobe Illustrator 23.0.5, SVG Export Plug-In . SVG Version: 6.00 Build 0)  -->
<svg version="1.1" xmlns="http://www.w3.org/2000/svg" xmlns:xlink="http://www.w3.org/1999/xlink" x="0px" y="0px"
	 viewBox="0 0 14.5 19.3" style="enable-background:new 0 0 14.5 19.3;" xml:space="preserve">
<style type="text/css">
	.st0{fill:none;}
	.st1{fill:none;stroke:#000000;stroke-width:0.5;stroke-miterlimit:10;}
	.st2{fill:#0F1112;}
	.st3{fill:#FFFFFF;}
	.st4{fill:#0F1112;stroke:#FFFFFF;stroke-width:0.5;stroke-miterlimit:10;}
	.st5{fill:#FFFFFF;stroke:#0F1112;stroke-width:0.5;stroke-miterlimit:10;}
	.st6{fill:none;stroke:#0F1112;stroke-width:1.5;stroke-miterlimit:10;}
	.st7{fill:none;stroke:#BC1313;stroke-width:1.5;stroke-miterlimit:10;}
	.st8{fill:none;stroke:#BC1313;stroke-miterlimit:10;}
	.st9{fill:#FFFFFF;stroke:#0F1112;stroke-width:0.75;stroke-miterlimit:10;}
	.st10{fill:none;stroke:#0F1112;stroke-width:2;stroke-miterlimit:10;}
	.st11{fill:none;stroke:#0F1112;stroke-miterlimit:10;}
	.st12{fill:#0F1112;stroke:#0F1112;stroke-width:0.5;stroke-miterlimit:10;}
	.st13{fill:#0F1112;stroke:#0F1112;stroke-width:0.75;stroke-miterlimit:10;}
</style>
<g id="Layer_5">
</g>
<g id="Layer_6">
</g>
<g id="Layer_2">
</g>
<g id="Layer_3">
</g>
<g id="Layer_4">
</g>
<g id="Layer_1">
</g>
<g id="Layer_7">
</g>
<g id="Layer_9">
</g>
<g id="Layer_8">
	<g>
		<path class="st11" d="M12.7,18.8H1.9c-0.6,0-1.1-0.5-1.1-1.1V7h13v10.7C13.8,18.3,13.3,18.8,12.7,18.8z"/>
		<path class="st2" d="M11.5,5.8c-0.5-2-2.3-3.5-4.3-3.5S3.4,3.8,2.9,5.8C2.8,6.2,2.7,6.7,2.7,7.2h1c0-0.5,0.1-1,0.2-1.4
			C4.4,4.2,5.7,3,7.2,3s2.8,1.2,3.3,2.8c0.1,0.4,0.2,0.9,0.2,1.4h1C11.7,6.7,11.6,6.2,11.5,5.8z"/>
	</g>
</g>
<g id="Layer_10">
</g>
<g id="Layer_11">
</g>
</svg>
