<?xml version="1.0" encoding="utf-8"?>
<!-- Generator: Adobe Illustrator 23.0.5, SVG Export Plug-In . SVG Version: 6.00 Build 0)  -->
<svg version="1.1" xmlns="http://www.w3.org/2000/svg" xmlns:xlink="http://www.w3.org/1999/xlink" x="0px" y="0px"
	 viewBox="0 0 16.5 20.3" style="enable-background:new 0 0 16.5 20.3;" xml:space="preserve">
<style type="text/css">
	.st0{fill:none;}
	.st1{fill:none;stroke:#000000;stroke-width:0.5;stroke-miterlimit:10;}
	.st2{fill:#0F1112;}
	.st3{fill:#FFFFFF;}
	.st4{fill:#0F1112;stroke:#FFFFFF;stroke-width:0.5;stroke-miterlimit:10;}
	.st5{fill:#FFFFFF;stroke:#0F1112;stroke-width:0.5;stroke-miterlimit:10;}
	.st6{fill:none;stroke:#0F1112;stroke-width:1.5;stroke-miterlimit:10;}
	.st7{fill:none;stroke:#BC1313;stroke-width:1.5;stroke-miterlimit:10;}
	.st8{fill:none;stroke:#BC1313;stroke-miterlimit:10;}
	.st9{fill:#FFFFFF;stroke:#0F1112;stroke-width:0.75;stroke-miterlimit:10;}
	.st10{fill:none;stroke:#0F1112;stroke-width:2;stroke-miterlimit:10;}
	.st11{fill:none;stroke:#0F1112;stroke-miterlimit:10;}
	.st12{fill:#0F1112;stroke:#0F1112;stroke-width:0.5;stroke-miterlimit:10;}
	.st13{fill:#0F1112;stroke:#0F1112;stroke-width:0.75;stroke-miterlimit:10;}
</style>
<g id="Layer_5">
</g>
<g id="Layer_6">
</g>
<g id="Layer_2">
</g>
<g id="Layer_3">
	<path class="st0" d="M-1-3.7h24v24H-1V-3.7z"/>
	<g>
		<path class="st2" d="M8.2,8.6c2.2,0,4-1.8,4-4s-1.8-4-4-4s-4,1.8-4,4S6,8.6,8.2,8.6z M8.2,10.6c-2.7,0-8,1.8-8,5.5v2.8h16v-2.8
			C16.2,12.4,10.9,10.6,8.2,10.6z"/>
		<path class="st3" d="M8.2,11.9c-2.3,0-6.9,1.3-6.9,4v2h13.8v-2C15.1,13.2,10.5,11.9,8.2,11.9z"/>
		<circle class="st3" cx="8.2" cy="4.6" r="3"/>
	</g>
</g>
<g id="Layer_4">
</g>
<g id="Layer_1">
</g>
<g id="Layer_7">
</g>
<g id="Layer_9">
</g>
<g id="Layer_8">
</g>
<g id="Layer_10">
</g>
<g id="Layer_11">
</g>
</svg>
