<?xml version="1.0" encoding="utf-8"?>
<!-- Generator: Adobe Illustrator 23.0.5, SVG Export Plug-In . SVG Version: 6.00 Build 0)  -->
<svg version="1.1" xmlns="http://www.w3.org/2000/svg" xmlns:xlink="http://www.w3.org/1999/xlink" x="0px" y="0px"
	 viewBox="0 0 17.5 18.3" style="enable-background:new 0 0 17.5 18.3;" xml:space="preserve">
<style type="text/css">
	.st0{fill:none;}
	.st1{fill:none;stroke:#000000;stroke-width:0.5;stroke-miterlimit:10;}
	.st2{fill:#0F1112;}
	.st3{fill:#FFFFFF;}
	.st4{fill:#0F1112;stroke:#FFFFFF;stroke-width:0.75;stroke-miterlimit:10;}
	.st5{fill:#FFFFFF;stroke:#0F1112;stroke-width:0.5;stroke-miterlimit:10;}
	.st6{fill:none;stroke:#0F1112;stroke-width:1.5;stroke-miterlimit:10;}
	.st7{fill:none;stroke:#BC1313;stroke-width:1.5;stroke-miterlimit:10;}
	.st8{fill:none;stroke:#BC1313;stroke-miterlimit:10;}
	.st9{fill:#FFFFFF;stroke:#0F1112;stroke-width:0.75;stroke-miterlimit:10;}
	.st10{fill:none;stroke:#0F1112;stroke-width:2;stroke-miterlimit:10;}
	.st11{fill:none;stroke:#0F1112;stroke-miterlimit:10;}
	.st12{fill:#0F1112;stroke:#0F1112;stroke-width:0.5;stroke-miterlimit:10;}
	.st13{fill:#0F1112;stroke:#0F1112;stroke-width:0.75;stroke-miterlimit:10;}
</style>
<g id="Layer_5">
</g>
<g id="Layer_6">
</g>
<g id="Layer_2">
</g>
<g id="Layer_3">
	<path class="st0" d="M-0.5-3.7h24v24h-24V-3.7z"/>
</g>
<g id="Layer_4">
	<path class="st4" d="M12.6,11.3h-0.8l-0.3-0.3c1-1.1,1.6-2.6,1.6-4.2c0-3.6-2.9-6.5-6.5-6.5S0.1,3.2,0.1,6.8s2.9,6.5,6.5,6.5
		c1.6,0,3.1-0.6,4.2-1.6l0.3,0.3v0.8l5,5l1.5-1.5L12.6,11.3z M6.6,11.3c-2.5,0-4.5-2-4.5-4.5s2-4.5,4.5-4.5s4.5,2,4.5,4.5
		S9.1,11.3,6.6,11.3z"/>
</g>
<g id="Layer_1">
</g>
<g id="Layer_7">
</g>
<g id="Layer_9">
</g>
<g id="Layer_8">
</g>
<g id="Layer_10">
</g>
<g id="Layer_11">
</g>
</svg>
