<?xml version="1.0" encoding="utf-8"?>
<!-- Generator: Adobe Illustrator 23.0.5, SVG Export Plug-In . SVG Version: 6.00 Build 0)  -->
<svg version="1.1" id="Layer_1" xmlns="http://www.w3.org/2000/svg" xmlns:xlink="http://www.w3.org/1999/xlink" x="0px" y="0px"
	 viewBox="0 0 133.5 59" style="enable-background:new 0 0 133.5 59;" xml:space="preserve">
<style type="text/css">
	.st0{fill:#0F1112;}
	.st1{font-family:'Oranienbaum';}
	.st2{font-size:36px;}
	.st3{font-size:20px;}
</style>
<g>
	<g id="Layer_3">
	</g>
	<g id="Layer_6">
	</g>
	<g>
		<g>
			<g>
				<g>
					<path class="st0" d="M9.4,22.1l-0.1-0.3L9.1,21l-0.5-1.5l-0.9-3c-0.6-2-1.1-4.1-1.5-6.2C6.1,9.8,6,9.2,6,8.6C6,8.3,6,8,6,7.7
						c0-0.2,0-0.4,0.1-0.6s0.1-0.5,0.5-0.8c0.2-0.1,0.5-0.2,0.7-0.2s0.4,0,0.5,0.1C8,6.3,8.2,6.4,8.3,6.5C8.6,6.7,8.8,7,9,7.1
						C9.3,7.4,9.7,7.7,10.1,8c1.6,1.1,3.6,1.6,5.6,1.7s4-0.3,5.9-1.1c0.4-0.2,0.9-0.4,1.3-0.7c0.2-0.1,0.4-0.3,0.6-0.4l0.3-0.2
						C23.9,7.2,24,7.1,24.2,7c0.1-0.1,0.4-0.3,0.8-0.1c0.4,0.2,0.4,0.5,0.5,0.6c0.1,0.4,0.1,0.6,0.1,0.9c0,0.6-0.1,1.1-0.2,1.6
						c-0.8,4.2-2,8.2-3.2,12.2l0,0c0,0.1-0.1,0.1-0.2,0.1l-11.4-0.2H9.4z M10.6,22.1l11.1-0.2L21.5,22c1.1-4.1,2.1-8.1,2.7-12.3
						c0.1-0.5,0.1-1,0.1-1.5c0-0.2,0-0.5-0.1-0.6c0-0.1-0.1-0.1,0.1,0c0.2,0,0.2,0,0.1,0s-0.1,0.1-0.2,0.2l-0.3,0.3
						c-0.2,0.2-0.4,0.4-0.7,0.5c-0.4,0.3-0.9,0.6-1.4,0.9c-2,1-4.2,1.4-6.4,1.4c-1.1,0-2.2-0.1-3.3-0.4c-0.5-0.1-1.1-0.3-1.6-0.5
						C10,9.7,9.5,9.5,9,9.2s-0.9-0.7-1.4-1C7.4,8,7.2,7.9,7.1,7.8S7,7.7,7,7.7s0.2,0.1,0.4-0.1c0.2-0.1,0.1-0.2,0.1-0.1
						c0,0,0,0.1,0,0.2c0,0.2,0,0.4,0,0.7c0.1,0.5,0.1,1,0.3,1.5c0.4,2,1.1,4,1.7,6l1,3l0.5,1.5l0.3,0.7l0.1,0.4l0.1,0.2v0.1l0,0l0,0
						c0,0,0,0.1,0-0.1c-0.1-0.2-0.2-0.3-0.4-0.4L10.6,22.1z"/>
				</g>
				<g>
					<path class="st0" d="M24.1,27.1l-8.9-0.3l-4.5-0.1l-2.2-0.1H8.4l0,0C9,27.2,7.6,25.8,7.8,26l0,0l0,0v-0.2c0-0.1,0-0.2,0-0.3
						c0-0.2,0.1-0.4,0.1-0.6c0.1-0.4,0.3-0.8,0.6-1.2c0.5-0.7,1.2-1.3,2-1.6c0.4-0.2,0.8-0.2,1.2-0.3c0.4,0,0.8,0,1.2,0l4.5,0.1
						l2.2,0.1c0.7,0,1.5,0,2.3,0.4c1.4,0.6,2.4,2.1,2.3,3.6L24.1,27.1L24.1,27.1z M24.1,26c0-1.5-1.1-2.9-2.4-3.3
						c-0.7-0.3-1.4-0.2-2.1-0.2l-2.2,0.1l-4.5,0.1c-0.4,0-0.8,0-1.1,0.1s-0.6,0.1-0.9,0.3c-0.6,0.3-1.1,0.7-1.4,1.3
						c-0.2,0.3-0.3,0.6-0.4,0.9c0,0.2-0.1,0.3-0.1,0.5C9,25.9,9,26,9,26v0.1l0,0l0,0c0.1,0.1-1.2-1.2-0.6-0.6l0,0h0.1l2.2-0.1
						l4.5-0.1l8.9-0.3C24.1,25,24.1,26,24.1,26z"/>
				</g>
			</g>
			<g>
				<path class="st0" d="M15.6,26.9L11.3,34l2.2-8c0.2-0.6,0.8-1,1.4-0.8s1,0.8,0.8,1.4C15.7,26.7,15.6,26.8,15.6,26.9z"/>
			</g>
			<g>
				<path class="st0" d="M19,26l2.2,8l-4.3-7.1c-0.3-0.5-0.2-1.3,0.4-1.6c0.5-0.3,1.3-0.2,1.6,0.4C18.9,25.8,18.9,25.9,19,26z"/>
			</g>
		</g>
	</g>
	<g id="Layer_7">
	</g>
	<g id="Layer_4">
	</g>
	<g id="Layer_5">
		<text transform="matrix(1 0 0 1 32.6672 32.4419)" class="st0 st1 st2">Nordic</text>
		<text transform="matrix(1 0 0 1 58.042 52.9363)" class="st0 st1 st3">Lines</text>
	</g>
</g>
</svg>
